<?xml version="1.0" encoding="UTF-8" standalone="no"?>
<!-- Created with Inkscape (http://www.inkscape.org/) -->

<svg
   width="210mm"
   height="297mm"
   viewBox="0 0 210 297"
   version="1.1"
   id="svg5"
   inkscape:version="1.1.1 (c3084ef, 2021-09-22)"
   sodipodi:docname="treeCrapeMyrtle1.svg"
   xmlns:inkscape="http://www.inkscape.org/namespaces/inkscape"
   xmlns:sodipodi="http://sodipodi.sourceforge.net/DTD/sodipodi-0.dtd"
   xmlns="http://www.w3.org/2000/svg"
   xmlns:svg="http://www.w3.org/2000/svg">
  <sodipodi:namedview
     id="namedview7"
     pagecolor="#ffffff"
     bordercolor="#666666"
     borderopacity="1.0"
     inkscape:pageshadow="2"
     inkscape:pageopacity="0.0"
     inkscape:pagecheckerboard="0"
     inkscape:document-units="mm"
     showgrid="false"
     inkscape:zoom="0.64052329"
     inkscape:cx="331.75999"
     inkscape:cy="526.91293"
     inkscape:window-width="1312"
     inkscape:window-height="969"
     inkscape:window-x="0"
     inkscape:window-y="38"
     inkscape:window-maximized="0"
     inkscape:current-layer="layer1" />
  <defs
     id="defs2" />
  <g
     inkscape:label="Layer 1"
     inkscape:groupmode="layer"
     id="layer1">
    <path
       style="fill:#6c5353;stroke-width:0.264583"
       id="path42"
       d="m 98.83086,287.44721 c -0.142716,-3.47957 -0.05963,-6.96566 -0.226028,-10.44465 -0.06552,-1.36987 -0.177038,-2.73715 -0.265555,-4.10572 -0.230229,-1.7261 -0.404003,-3.46068 -0.690689,-5.17831 -0.668721,-4.00653 -1.861614,-9.3643 -2.879892,-13.23258 -1.42186,-5.40143 -2.989199,-10.68286 -5.195834,-15.83004 -1.375752,-3.20907 -3.028281,-6.29228 -4.54242,-9.43842 -2.429714,-4.10211 -4.859427,-8.20423 -7.289141,-12.30635 0,0 -1.815886,1.04679 -1.815886,1.04679 v 0 c 2.279254,4.18085 4.558509,8.3617 6.837762,12.54255 1.440627,3.17793 3.002997,6.30345 4.321882,9.53381 2.23443,5.47281 3.592954,10.18991 5.006819,15.89261 1.027718,4.14519 2.032449,9.06534 2.632606,13.32548 0.24438,1.73472 0.366123,3.48452 0.549185,5.22677 0.05578,1.38045 0.134967,2.76015 0.16732,4.14135 0.08289,3.53851 -0.05796,7.08134 -0.127209,10.61875 0,0 3.51708,-1.79204 3.51708,-1.79204 z" />
    <path
       style="fill:#6c5353;stroke-width:0.264583"
       id="path44"
       d="m 98.414856,293.18233 c -0.01606,-0.41055 -0.04906,-0.82079 -0.04816,-1.23165 0.0056,-2.53596 0.240689,-5.06923 0.399474,-7.59788 0.214071,-3.40909 0.176662,-2.99625 0.32028,-6.5531 0.201031,-5.97993 0.13978,-11.967 0.418809,-17.94481 0.196305,-4.2055 0.394256,-6.09486 0.747581,-10.32312 1.00278,-11.01149 3.06403,-21.92509 6.30441,-32.50219 0.7642,-2.49444 1.65387,-4.94871 2.4808,-7.42307 5.06261,-13.0072 12.92419,-24.65298 21.48439,-35.592 1.34315,-1.71641 2.7426,-3.38802 4.11391,-5.08203 4.21187,-4.96055 2.21909,-2.6664 5.95912,-6.8991 0,0 -3.21337,1.35823 -3.21337,1.35823 v 0 c -3.51847,4.1555 -1.63626,1.90191 -5.63109,6.77372 -9.92561,12.57681 -19.51496,25.65782 -25.3872,40.69627 -0.84069,2.48655 -1.74423,4.95273 -2.52207,7.45965 -3.29798,10.62907 -5.423508,21.61459 -6.536451,32.68079 -0.377918,4.30789 -0.575646,6.07932 -0.787583,10.36254 -0.297119,6.00479 -0.285284,12.02173 -0.59064,18.02628 -0.278027,5.1987 -0.719021,10.38473 -1.023424,15.58052 0,0 3.511217,-1.78905 3.511217,-1.78905 z" />
    <path
       style="fill:#6c5353;stroke-width:0.264583"
       id="path46"
       d="m 99.651142,248.93552 c -0.161126,-5.84295 -0.520663,-11.67792 -0.920821,-17.50907 -0.200229,-2.91772 -0.371459,-5.83813 -0.638855,-8.75047 -0.295534,-3.21881 -0.699775,-6.42672 -1.049663,-9.64008 -2.277361,-14.84509 -0.939509,-7.25504 -4.068958,-22.76033 0,0 -2.09699,1.1199 -2.09699,1.1199 v 0 c 2.940534,15.5934 1.703793,7.95911 3.767733,22.89349 0.312452,3.22881 0.689097,6.45205 0.937353,9.68643 0.682304,8.88933 0.914545,17.83711 0.564853,26.7462 0,0 3.505348,-1.78607 3.505348,-1.78607 z" />
    <path
       style="fill:#6c5353;stroke-width:0.264583"
       id="path70"
       d="m 99.226341,291.70352 c -0.25299,-6.13547 -0.101942,-12.27642 7.93e-4,-18.41333 0.213863,-6.90626 0.147035,-13.80803 -0.275203,-20.70377 -0.932823,-7.08112 -3.110992,-13.91697 -5.350912,-20.67313 -3.903343,-10.88909 -7.65098,-21.83364 -11.656656,-32.68578 -2.985537,-7.47898 -1.372915,-3.49078 -4.853482,-11.95825 0,0 -2.644727,1.47492 -2.644727,1.47492 v 0 c 3.233057,8.59563 1.664433,4.58215 4.670073,12.05437 4.108407,10.82281 7.826907,21.78536 11.469753,32.77262 2.167136,6.76595 4.319895,13.60944 5.124718,20.69592 0.156403,1.91785 0.31878,3.71408 0.40433,5.64365 0.220943,4.98333 0.07514,9.97211 0.0027,14.95671 -0.119724,6.20345 -0.225288,12.40767 -0.373317,18.61018 0,0 3.48189,-1.77411 3.48189,-1.77411 z" />
    <path
       style="fill:#6c5353;stroke-width:0.264583"
       id="path72"
       d="m 99.249799,295.39144 c -0.157766,-4.48631 0.6293,-8.95332 1.380321,-13.35869 0.2262,-1.28247 0.4508,-2.56523 0.67861,-3.84741 0.48591,-2.7349 1.08415,-5.95053 1.50132,-8.68712 0.75062,-4.92387 1.30051,-9.87798 1.86622,-14.82537 0.86219,-8.5812 2.23404,-17.03974 4.24742,-25.42268 1.14197,-4.79913 2.74263,-9.482 3.84499,-14.29094 0.21883,-0.95463 0.39215,-1.91912 0.58823,-2.87867 0.71019,-3.9929 1.09045,-8.03426 1.7475,-12.03506 0.35151,-2.14035 0.67335,-3.68368 1.08983,-5.78847 0.86399,-3.90997 1.44007,-7.88345 2.58036,-11.72995 0.35744,-1.20571 0.77364,-2.39323 1.16046,-3.58984 1.88369,-5.59963 5.05818,-10.56962 8.10707,-15.57651 0,0 -2.80596,1.23995 -2.80596,1.23995 v 0 c -3.15969,5.08704 -6.43899,10.13846 -8.46136,15.82105 -0.41571,1.21779 -0.86353,2.4251 -1.24714,3.65338 -1.20001,3.84223 -1.8738,7.82005 -2.60043,11.76994 -0.27854,1.52737 -0.79015,4.29732 -1.03129,5.77542 -0.65299,4.00256 -1.08379,8.03776 -1.78751,12.03228 -1.22016,5.7738 -2.96896,11.40928 -4.38452,17.13622 -0.69047,3.03273 -0.88971,3.76477 -1.46315,6.89725 -1.11882,6.11168 -1.83308,12.28681 -2.55132,18.45527 -0.58666,4.95568 -1.16462,9.91665 -1.948937,14.84618 -0.448418,2.81838 -1.047922,5.91057 -1.57779,8.71991 -0.243747,1.29236 -0.488611,2.5845 -0.732917,3.87675 -0.80899,4.49835 -1.606539,9.02504 -1.728816,13.60513 0,0 3.528809,-1.79802 3.528809,-1.79802 z" />
    <path
       style="fill:#6c5353;stroke-width:0.264583"
       id="path74"
       d="m 83.084318,204.96451 c -0.234429,-2.80624 -0.805064,-5.56156 -1.369946,-8.3156 -1.944143,-6.73397 -5.029081,-13.08696 -8.028464,-19.40076 -0.958609,-1.76237 -1.917218,-3.52474 -2.87583,-5.28711 0,0 -1.38829,0.79561 -1.38829,0.79561 v 0 c 0.934386,1.77296 1.868776,3.54592 2.803162,5.31888 2.959616,6.32582 5.97852,12.70689 7.831302,19.46141 0.576982,2.74974 1.12762,5.51336 1.262766,8.32703 0,0 1.7653,-0.89946 1.7653,-0.89946 z" />
    <path
       style="fill:#6c5353;stroke-width:0.264583"
       id="path78"
       d="m 87.764943,215.88365 c -1.91778,-3.40831 -4.176713,-6.60718 -6.321658,-9.87322 -2.197447,-3.51203 -4.599498,-6.8906 -6.828838,-10.38191 -1.255956,-1.96693 -3.258743,-5.27651 -4.452247,-7.23406 -2.875261,-4.56511 -5.674434,-9.16835 -8.390217,-13.8297 0,0 -1.398162,0.80758 -1.398162,0.80758 v 0 c 2.696596,4.67274 5.474946,9.28968 8.312076,13.87868 1.168109,1.93772 3.187636,5.31059 4.415732,7.26188 2.205709,3.5046 4.562723,6.91221 6.751767,10.42753 2.13492,3.2606 4.404849,6.45086 6.204659,9.91509 0,0 1.706888,-0.97187 1.706888,-0.97187 z" />
    <path
       style="fill:#6c5353;stroke-width:0.264583"
       id="path82"
       d="m 90.928317,225.88528 c -0.547333,-7.17307 -1.591884,-14.29766 -2.389172,-21.44563 -0.671983,-6.651 -0.945671,-13.37992 -0.162637,-20.03955 0.314696,-2.67645 0.77851,-5.33719 1.341882,-7.97254 0.578202,-2.70472 1.232176,-5.39985 2.079625,-8.03265 0.905039,-2.81171 2.113026,-5.51674 3.169539,-8.27511 0,0 -1.27817,0.59329 -1.27817,0.59329 v 0 c -1.065755,2.76868 -2.285291,5.48297 -3.19727,8.30604 -0.852077,2.63764 -1.501672,5.3401 -2.086337,8.04959 -0.571315,2.64763 -1.050571,5.31928 -1.378609,8.00791 -0.815398,6.68305 -0.576337,13.43545 0.07191,20.11648 0.758026,7.18619 1.79229,14.36137 2.072738,21.58715 0,0 1.756497,-0.89498 1.756497,-0.89498 z" />
    <path
       style="fill:#6c5353;stroke-width:0.264583"
       id="path84"
       d="m 97.115619,221.04948 c -0.431178,-12.82363 0.486839,-25.64798 1.996406,-38.37705 0.408598,-3.44542 0.918785,-6.87803 1.378185,-10.31704 1.67526,-10.96533 0.823,-5.7982 2.51796,-15.50775 0,0 -1.38495,0.67704 -1.38495,0.67704 v 0 c -1.53641,9.64485 -0.75732,4.50996 -2.30631,15.40937 -0.442928,3.43204 -0.923316,6.85946 -1.32878,10.29613 -1.516176,12.85099 -2.534462,25.75977 -2.611403,38.70531 0,0 1.738892,-0.88601 1.738892,-0.88601 z" />
    <path
       style="fill:#6c5353;stroke-width:0.264583"
       id="path88"
       d="m 103.73654,223.50416 c 0.0254,-0.39947 0.0363,-0.80013 0.0763,-1.19841 0.29306,-2.91658 0.69146,-5.81699 0.93509,-8.74018 0.3533,-4.23904 0.37623,-5.41812 0.60407,-9.83507 0.42754,-11.81479 0.53142,-23.66057 -0.21417,-35.4658 -0.15286,-2.42022 -0.37797,-4.83533 -0.56695,-7.25299 -0.61782,-6.56172 -1.36915,-13.10964 -2.0779,-19.66188 0,0 -1.41789,0.74244 -1.41789,0.74244 v 0 c 0.75368,6.53532 1.53456,13.06822 2.15007,19.61852 0.19222,2.41427 0.42241,4.82582 0.57668,7.24281 0.75452,11.82172 0.62871,23.6888 0.0799,35.51568 -0.26638,4.39862 -0.30135,5.65118 -0.70251,9.87551 -0.28048,2.95354 -0.71088,5.87773 -1.08373,8.81854 -0.0522,0.41161 -0.0809,0.82587 -0.12135,1.2388 0,0 1.76237,-0.89797 1.76237,-0.89797 z" />
    <path
       style="fill:#6c5353;stroke-width:0.264583"
       id="path92"
       d="m 105.3815,203.02023 c -0.0446,-5.47165 0.0789,-10.9669 0.62515,-16.41522 0.20036,-1.9983 0.47966,-3.9879 0.71949,-5.98184 1.01593,-6.10429 1.34729,-8.82 2.9226,-15.00907 0.74908,-2.94296 1.67659,-5.8376 2.51488,-8.75639 0,0 -1.25793,0.59694 -1.25793,0.59694 v 0 c -0.85396,2.92956 -1.79306,5.83564 -2.56188,8.7887 -1.65327,6.35031 -1.96422,8.8385 -3.05034,15.08747 -0.26085,2.00707 -0.56145,4.00937 -0.78255,6.0212 -0.60411,5.49695 -0.73291,11.03541 -0.87712,16.55871 0,0 1.7477,-0.8905 1.7477,-0.8905 z" />
    <path
       style="fill:#6c5353;stroke-width:0.264583"
       id="path94"
       d="m 102.90599,228.31505 c -0.1493,-5.21338 0.15064,-10.42844 0.48028,-15.62979 0.41912,-7.49454 2.16935,-14.71487 4.13635,-21.92735 0.50081,-1.62953 0.96372,-3.27119 1.50243,-4.88858 1.07793,-3.23631 2.76269,-7.64154 4.00678,-10.78615 1.70932,-4.32056 2.79153,-6.97489 4.80694,-11.17923 0.90359,-1.88499 1.88466,-3.73185 2.82699,-5.59777 2.66521,-5.26349 5.80263,-10.25695 8.95368,-15.23576 0,0 -1.49849,0.66027 -1.49849,0.66027 v 0 c -3.12334,4.98192 -6.23582,9.97644 -8.89746,15.22733 -0.94371,1.86896 -1.92591,3.71897 -2.83111,5.60688 -2.05698,4.29009 -3.06733,6.7893 -4.81616,11.19355 -1.24851,3.14423 -2.9654,7.58455 -4.05179,10.81978 -0.54436,1.62106 -1.01081,3.26724 -1.51621,4.90086 -1.99529,7.21762 -3.83206,14.50832 -4.24198,22.01917 -0.30962,5.23137 -0.55286,10.46982 -0.61381,15.71028 0,0 1.75356,-0.89349 1.75356,-0.89349 z" />
    <path
       style="fill:#6c5353;stroke-width:0.264583"
       id="path96"
       d="m 62.966002,177.8047 c -0.739997,-1.22607 -1.570101,-2.39687 -2.375141,-3.57992 0,0 -0.794054,0.46536 -0.794054,0.46536 v 0 c 0.782733,1.19554 1.589514,2.3797 2.317491,3.61027 0,0 0.851704,-0.49571 0.851704,-0.49571 z" />
    <path
       style="fill:#6c5353;stroke-width:0.264583"
       id="path98"
       d="m 73.444211,175.17026 c -0.543428,-2.79537 -1.173617,-5.57287 -1.790388,-8.35265 0,0 -0.790027,0.42451 -0.790027,0.42451 v 0 c 0.617334,2.78265 1.252879,5.5635 1.72244,8.37613 0,0 0.857975,-0.44799 0.857975,-0.44799 z" />
    <path
       style="fill:#6c5353;stroke-width:0.264583"
       id="path100"
       d="m 89.661796,175.61584 c -0.03477,-3.2054 -0.008,-1.31651 -0.09663,-5.66643 0,0 -0.78132,0.39941 -0.78132,0.39941 v 0 c 0.02784,4.3823 0.0369,2.47791 0.0021,5.71324 0,0 0.875752,-0.44622 0.875752,-0.44622 z" />
    <path
       style="fill:#6c5353;stroke-width:0.264583"
       id="path102"
       d="m 102.91938,145.55371 c 0.64869,-4.17334 0.22924,-1.90806 1.33748,-6.78071 0,0 -0.78025,0.3755 -0.78025,0.3755 v 0 c -1.14945,4.90651 -0.70227,2.62277 -1.41261,6.83691 0,0 0.85538,-0.4317 0.85538,-0.4317 z" />
    <circle
       id="path104"
       style="fill:#6c5353;stroke:#000000;stroke-width:0.264583"
       cx="102.85535"
       cy="149.11961"
       r="0.01376912" />
    <path
       style="fill:#6c5353;stroke-width:0.264583"
       id="path108"
       d="m 102.46782,144.27128 c -0.30655,-4.67991 -2.1229,-9.1394 -3.817639,-13.4613 0,0 -0.775409,0.43218 -0.775409,0.43218 v 0 c 1.681324,4.3207 3.492028,8.79234 3.715828,13.47609 0,0 0.87722,-0.44697 0.87722,-0.44697 z" />
    <path
       style="fill:#6c5353;stroke-width:0.264583"
       id="path110"
       d="m 107.98173,235.07673 c 2.68192,-8.83137 7.07052,-17.02726 11.33514,-25.17162 0,0 -0.71781,0.32321 -0.71781,0.32321 v 0 c -4.27412,8.19884 -8.67146,16.43528 -11.48599,25.27484 0,0 0.86866,-0.42643 0.86866,-0.42643 z" />
    <path
       style="fill:#6c5353;stroke-width:0.264583"
       id="path114"
       d="m 84.188803,228.06844 c -0.08128,-0.34814 -0.155343,-0.69804 -0.243827,-1.04441 -0.535797,-2.09738 -0.593783,-1.99212 -1.080654,-4.37877 -0.650666,-3.18957 -1.074483,-6.40886 -1.47121,-9.63718 -0.328327,-4.19061 -0.234656,-2.13522 -0.297233,-6.1654 0,0 -0.803301,0.41105 -0.803301,0.41105 v 0 c 0.07654,4.03205 -0.02178,1.97542 0.310591,6.1691 0.397912,3.23254 0.828278,6.45714 1.457164,9.65495 0.485688,2.46967 0.51698,2.24186 1.034507,4.40336 0.0833,0.34792 0.151093,0.69937 0.22664,1.04905 0,0 0.867323,-0.46175 0.867323,-0.46175 z" />
    <path
       style="fill:#6c5353;stroke-width:0.264583"
       id="path116"
       d="m 77.888751,219.11592 c -2.703915,-4.19456 -6.201373,-7.8251 -9.683837,-11.37262 0,0 -0.748734,0.45775 -0.748734,0.45775 v 0 c 3.461832,3.54344 6.94967,7.17594 9.575498,11.40287 0,0 0.857073,-0.488 0.857073,-0.488 z" />
    <path
       style="fill:#6c5353;stroke-width:0.264583"
       id="path122"
       d="m 77.631176,217.33234 c -0.809093,-4.50512 -1.510966,-9.02974 -2.265529,-13.54464 0,0 -0.794022,0.42146 -0.794022,0.42146 v 0 c 0.771321,4.51934 1.481497,9.04762 2.187945,13.57729 0,0 0.871606,-0.45411 0.871606,-0.45411 z" />
    <path
       style="fill:#6c5353;stroke-width:0.264583"
       id="path134"
       d="m 73.550455,177.17006 c -0.05657,-5.75232 -0.0481,-11.50502 -0.02979,-17.25751 -0.01071,-2.4806 0.191649,-4.95305 0.458481,-7.41668 0,0 -0.858449,0.42632 -0.858449,0.42632 v 0 c -0.242408,2.46102 -0.428834,4.92955 -0.413279,7.40473 0.01841,5.76261 0.02653,11.52543 -0.02979,17.28787 0,0 0.872818,-0.44473 0.872818,-0.44473 z" />
    <path
       style="fill:#6c5353;stroke-width:0.264583"
       id="path136"
       d="m 71.023903,173.78843 c -1.363654,-3.71882 -3.483364,-7.12131 -5.478909,-10.52581 0,0 -0.78181,0.4521 -0.78181,0.4521 v 0 c 1.991297,3.39309 4.096962,6.80209 5.385298,10.53812 0,0 0.875421,-0.46441 0.875421,-0.46441 z" />
    <path
       style="fill:#6c5353;stroke-width:0.264583"
       id="path140"
       d="m 77.958839,190.37877 c -1.426491,-2.39613 -2.941738,-4.75222 -4.709501,-6.91451 -0.679609,-0.83129 -1.405591,-1.62356 -2.108386,-2.43534 -3.081901,-3.42373 -1.566359,-1.7499 -4.545504,-5.02249 0,0 -1.525445,0.92555 -1.525445,0.92555 v 0 c 2.996343,3.25545 1.481894,1.58351 4.540128,5.01875 0.689304,0.81533 1.402967,1.61066 2.06791,2.44597 1.723818,2.1655 3.209186,4.52644 4.556223,6.94021 0,0 1.724575,-0.95814 1.724575,-0.95814 z" />
    <path
       style="fill:#6c5353;stroke-width:0.264583"
       id="path150"
       d="m 89.276023,204.81852 c 0.415716,-4.34858 1.998337,-8.49399 3.575058,-12.53282 1.870908,-4.52618 3.93373,-9.0466 6.722411,-13.09493 0.695768,-1.01005 1.473108,-1.96141 2.209658,-2.94212 2.16691,-2.784 4.54493,-5.39117 6.90162,-8.01259 0,0 -1.6286,0.68478 -1.6286,0.68478 v 0 c -2.35503,2.62152 -4.72771,5.23202 -6.8849,8.02248 -0.738279,0.98676 -1.516342,1.94498 -2.21485,2.96029 -2.797175,4.06578 -4.903621,8.58338 -6.747962,13.14357 -1.590951,4.09117 -3.178667,8.27891 -3.688932,12.66632 0,0 1.756497,-0.89498 1.756497,-0.89498 z" />
    <path
       style="fill:#6c5353;fill-opacity:1;stroke-width:0.264583"
       id="path6230"
       d="m 93.548688,193.89928 c -0.397803,-1.03228 -0.822415,-2.04903 -1.267015,-3.06209 0,0 -1.662467,0.93322 -1.662467,0.93322 v 0 c 0.422738,1.0228 0.840716,2.04653 1.221168,3.08604 0,0 1.708314,-0.95717 1.708314,-0.95717 z" />
    <rect
       style="fill:none;fill-opacity:1;stroke-width:0.264583"
       id="rect6326"
       width="150.35883"
       height="144.57581"
       x="23.132128"
       y="120.20445" />
  </g>
</svg>
